<svg width="32" height="32" viewBox="0 0 37 35" fill="none" xmlns="http://www.w3.org/2000/svg">
    <path d="M20.0735 8.75H23.7233V22.75C23.7233 23.6783 23.3387 24.5685 22.6543 25.2249C21.9698 25.8813 21.0415 26.25 20.0735 26.25H16.4238C15.4558 26.25 14.5275 25.8813 13.843 25.2249C13.1586 24.5685 12.7741 23.6783 12.7741 22.75V21H16.4238V22.75H20.0735V8.75ZM18.2487 0C20.6451 0 23.0181 0.452651 25.2321 1.33211C27.4462 2.21157 29.4579 3.50061 31.1524 5.12563C32.847 6.75066 34.1912 8.67984 35.1082 10.803C36.0253 12.9262 36.4973 15.2019 36.4973 17.5C36.4973 22.1413 34.5747 26.5925 31.1524 29.8744C27.7301 33.1563 23.0885 35 18.2487 35C15.8522 35 13.4792 34.5474 11.2652 33.6679C9.05117 32.7884 7.03945 31.4994 5.34491 29.8744C1.92262 26.5925 0 22.1413 0 17.5C0 12.8587 1.92262 8.40752 5.34491 5.12563C8.7672 1.84374 13.4088 0 18.2487 0ZM18.2487 3.5C14.3768 3.5 10.6635 4.975 7.92566 7.60051C5.18783 10.226 3.64973 13.787 3.64973 17.5C3.64973 21.213 5.18783 24.774 7.92566 27.3995C10.6635 30.025 14.3768 31.5 18.2487 31.5C22.1205 31.5 25.8338 30.025 28.5717 27.3995C31.3095 24.774 32.8476 21.213 32.8476 17.5C32.8476 13.787 31.3095 10.226 28.5717 7.60051C25.8338 4.975 22.1205 3.5 18.2487 3.5Z"
          fill="white"/>
</svg>
